<?xml version="1.0" encoding="UTF-8"?>
<svg id="Layer_1" xmlns="http://www.w3.org/2000/svg" version="1.1" viewBox="0 0 74 78">
  <!-- Generator: Adobe Illustrator 29.0.1, SVG Export Plug-In . SVG Version: 2.1.0 Build 192)  -->
  <defs>
    <style>
      .st0 {
        fill: #1a3d28;
      }

      .st1 {
        fill: #584c44;
      }

      .st2, .st3 {
        fill: #fff;
      }

      .st4 {
        fill: #dcbf7d;
      }

      .st5 {
        fill: #b03034;
      }

      .st3 {
        stroke: #fff;
        stroke-miterlimit: 10;
        stroke-width: 7px;
      }
    </style>
  </defs>
  <path class="st0" d="M12,9.8c8.9.9,15.5-.9,24.9-8.5,7,6.2,15.1,9.9,24.7,8.3.2,1,.4,1.9.5,2.8,1.3,13.2-.3,25.8-8,36.9-4.1,5.9-9.5,10.3-15.8,13.4-.9.4-2.3.3-3.2-.2-13-6.8-20.5-17.7-23-32.5-1.1-6.7-1.2-13.4,0-20.4Z"/>
  <path class="st4" d="M36.9,63.2c-.7,0-1.5-.2-2-.5-12.8-6.7-20.6-17.7-23.1-32.6-1.2-6.9-1.2-13.6,0-20.4v-.2s.3,0,.3,0c9.3,1,15.7-1.2,24.7-8.4h.2c0-.1.1,0,.1,0,7.9,7,15.9,9.7,24.5,8.3h.2s0,.2,0,.2c0,.3.1.6.2,1,.1.6.2,1.2.3,1.9,1.5,15-1.2,27.1-8.1,37.1-4,5.8-9.3,10.3-15.9,13.4-.4.2-.9.3-1.4.3ZM12.2,10c-1.1,6.7-1.1,13.3,0,20.1,2.5,14.8,10.2,25.7,22.9,32.3.9.5,2.3.5,3,.2,6.5-3.1,11.8-7.6,15.7-13.3,3.7-5.3,6.1-11.1,7.4-17.6,1.1-5.8,1.3-12.1.6-19.2,0-.6-.2-1.2-.3-1.8,0-.2,0-.5-.1-.7-8.5,1.3-16.6-1.4-24.5-8.3-7.7,6.1-13.6,8.6-20.9,8.6-1.2,0-2.5,0-3.8-.2Z"/>
  <g>
    <path d="M14.7,13.5c-1.1,5.6-1,11.1,0,16.6,2.2,12,9,21,20.6,26.5.8.4,2.1.5,2.9.1,5.7-2.5,10.5-6.1,14.1-10.9,6.9-9.1,8.4-19.4,7.2-30.2,0-.7-.3-1.5-.4-2.3-8.6,1.3-15.8-1.1-22.1-6.1-8.4,6.2-14.3,7-22.3,6.2Z"/>
    <path class="st4" d="M37,58.1c-.8,0-1.6-.2-2.2-.5-11.7-5.6-18.9-14.8-21.2-27.3-1.1-5.7-1.1-11.3,0-17l.2-1h1c7.6.8,13.3,0,21.5-5.9l.7-.5.7.5c6.4,5.1,13.4,7.1,21.2,5.9l1.1-.2.2,1c0,.3.1.5.2.8.1.5.2,1.1.3,1.6,1.4,12.5-1.1,22.6-7.4,31-3.7,4.8-8.6,8.6-14.6,11.3-.5.2-1,.3-1.6.3ZM15.6,14.6c-.9,5.1-.8,10.1.2,15.2,2.2,11.8,8.9,20.5,20,25.7.6.3,1.5.3,2,.1,5.7-2.5,10.3-6,13.7-10.6,6.1-8,8.3-17.3,7-29.4,0-.4-.1-.8-.2-1.2-7.8.9-14.8-1.1-21.2-6-8.1,5.7-13.9,6.6-21.3,6.1Z"/>
  </g>
  <path class="st2" d="M14.7,13.5c8,.8,13.8,0,22.3-6.2,6.3,5,13.5,7.4,22.1,6.1.2.8.3,1.6.4,2.3,1.2,10.8-.3,21.1-7.2,30.2-3.7,4.8-8.5,8.4-14.1,10.9-.8.3-2.1.2-2.9-.1-11.6-5.5-18.3-14.5-20.6-26.5-1-5.5-1-11,0-16.6Z"/>
  <polygon class="st5" points="27.8 16.8 25.2 16.7 25.2 19.6 27.8 19.6 27.8 16.8"/>
  <g>
    <path class="st4" d="M18.9,20.5h2.6v15.9h-2.6v-15.9Z"/>
    <path class="st4" d="M22.2,37.2h-4.1v-17.4h4.1v17.4ZM19.6,35.8h1.2v-14.5h-1.2v14.5Z"/>
  </g>
  <g>
    <path class="st4" d="M28.1,20.5h2.8l-.3,2.3h-2.8v13.7h-2.6v-13.7h-2.8v-2.3h2.5"/>
    <polygon class="st4" points="28.5 37.2 24.4 37.2 24.4 23.5 21.7 23.5 21.7 19.8 24.9 19.8 24.9 21.2 23.1 21.2 23.1 22.1 25.8 22.1 25.8 35.8 27.1 35.8 27.1 22.1 29.9 22.1 30.1 21.2 28.1 21.2 28.1 19.8 31.7 19.8 31.2 23.5 28.5 23.5 28.5 37.2"/>
  </g>
  <g>
    <path class="st4" d="M32.8,20.5h3.6l2.7,15.9h-2.6l-.5-3.2h0s-3,0-3,0l-.5,3.1h-2.5l2.7-15.9ZM35.6,31.2l-1.2-7.9h0l-1.2,7.9h2.4Z"/>
    <path class="st4" d="M39.9,37.2h-4.1l-.5-3.1h-1.8l-.5,3.1h-3.9l3-17.4h4.8l3,17.4ZM37,35.8h1.2l-2.5-14.5h-2.4l-2.5,14.5h1l.5-3.1h3.6v.6h.7c0,0,.4,2.5.4,2.5ZM36.5,31.9h-4l1.4-9.3h1.3l1.4,9.3ZM34.1,30.5h.7l-.4-2.5-.4,2.5Z"/>
  </g>
  <g>
    <path class="st4" d="M40.4,20.5h2.6v13.7h4.4v2.3h-7v-15.9Z"/>
    <path class="st4" d="M48.1,37.2h-8.4v-17.4h4.1v13.7h4.4v3.7ZM41.1,35.8h5.6v-.9h-4.4v-13.7h-1.2v14.5Z"/>
  </g>
  <g>
    <path class="st4" d="M49,35.7c-.7-.7-1-1.7-1-3v-8.4c0-1.3.3-2.3,1-3,.7-.7,1.7-1,3-1s2.3.3,3,1c.7.7,1,1.7,1,3v8.4c0,1.3-.3,2.3-1,3-.7.7-1.7,1-3,1s-2.3-.3-3-1ZM53.3,32.9v-8.7c0-1-.5-1.6-1.4-1.6s-1.4.5-1.4,1.6v8.7c0,1,.5,1.6,1.4,1.6s1.4-.5,1.4-1.6Z"/>
    <path class="st4" d="M51.9,37.4c-1.5,0-2.7-.4-3.5-1.3h0c-.8-.8-1.2-2-1.2-3.5v-8.4c0-1.5.4-2.6,1.2-3.5.8-.8,2-1.3,3.5-1.3s2.7.4,3.5,1.3c.8.8,1.2,2,1.2,3.5v8.4c0,1.5-.4,2.6-1.2,3.5-.8.8-2,1.3-3.5,1.3ZM51.9,21c-1.1,0-1.9.3-2.5.8-.6.6-.8,1.4-.8,2.5v8.4c0,1.1.3,1.9.8,2.5h0c.6.6,1.4.8,2.5.8s1.9-.3,2.5-.8c.6-.6.8-1.4.8-2.5v-8.4c0-1.1-.3-1.9-.8-2.5-.6-.6-1.4-.8-2.5-.8ZM51.9,35.1c-1.3,0-2.1-.9-2.1-2.3v-8.7c0-1.4.8-2.3,2.1-2.3s2.1.9,2.1,2.3v8.7c0,1.4-.8,2.3-2.1,2.3ZM51.9,23.3c-.3,0-.7,0-.7.9v8.7c0,.9.3.9.7.9s.7,0,.7-.9v-8.7c0-.9-.3-.9-.7-.9Z"/>
  </g>
  <g>
    <path class="st2" d="M18.9,20.5h2.6v15.9h-2.6v-15.9Z"/>
    <path class="st2" d="M21.7,36.7h-3v-16.3h3v16.3ZM19.1,36.3h2.2v-15.5h-2.2v15.5Z"/>
  </g>
  <g>
    <path class="st2" d="M25.1,22.8h-2.8v-2.3h8.5l-.3,2.3h-2.8v13.7h-2.6v-13.7Z"/>
    <path class="st2" d="M28,36.7h-3v-13.7h-2.8v-2.7h8.9l-.4,2.7h-2.7v13.7ZM25.3,36.3h2.2v-13.7h2.8l.3-1.9h-8.1v1.9h2.8v13.7Z"/>
  </g>
  <g>
    <path class="st2" d="M32.8,20.5h3.6l2.7,15.9h-2.6l-.5-3.2h0s-3,0-3,0l-.5,3.1h-2.5l2.7-15.9ZM35.6,31.2l-1.2-7.9h0l-1.2,7.9h2.4Z"/>
    <path class="st2" d="M39.3,36.7h-3.1l-.5-3.1h-2.7l-.5,3.1h-2.9l2.8-16.3h3.9l2.8,16.3ZM36.6,36.3h2.2l-2.7-15.5h-3.2l-2.7,15.5h2l.5-3.1h3.2c0,.1.2.1.2.1l.5,3ZM35.9,31.4h-2.8l1.2-8.3h.4l1.2,8.3ZM33.5,31h1.9l-1-6.5-.9,6.5Z"/>
  </g>
  <g>
    <path class="st2" d="M40.4,20.5h2.6v13.7h4.4v2.3h-7v-15.9Z"/>
    <path class="st2" d="M47.6,36.7h-7.4v-16.3h3v13.7h4.4v2.7ZM40.6,36.3h6.6v-1.9h-4.4v-13.7h-2.2v15.5Z"/>
  </g>
  <g>
    <path class="st2" d="M49,35.7c-.7-.7-1-1.7-1-3v-8.4c0-1.3.3-2.3,1-3,.7-.7,1.7-1,3-1s2.3.3,3,1c.7.7,1,1.7,1,3v8.4c0,1.3-.3,2.3-1,3-.7.7-1.7,1-3,1s-2.3-.3-3-1ZM53.3,32.9v-8.7c0-1-.5-1.6-1.4-1.6s-1.4.5-1.4,1.6v8.7c0,1,.5,1.6,1.4,1.6s1.4-.5,1.4-1.6Z"/>
    <path class="st2" d="M51.9,36.9c-1.3,0-2.4-.4-3.1-1.1-.7-.7-1.1-1.8-1.1-3.1v-8.4c0-1.3.4-2.4,1.1-3.1.7-.7,1.8-1.1,3.1-1.1s2.4.4,3.1,1.1c.7.7,1.1,1.8,1.1,3.1v8.4c0,1.3-.4,2.4-1.1,3.1-.7.7-1.8,1.1-3.1,1.1ZM51.9,20.5c-1.2,0-2.2.3-2.8,1-.6.7-1,1.6-1,2.8v8.4c0,1.2.3,2.2,1,2.8h0c.6.7,1.6,1,2.8,1s2.2-.3,2.8-1c.6-.7,1-1.6,1-2.8v-8.4c0-1.2-.3-2.2-1-2.8-.6-.7-1.6-1-2.8-1ZM51.9,34.6c-.7,0-1.6-.3-1.6-1.8v-8.7c0-1.5.9-1.8,1.6-1.8s1.6.3,1.6,1.8v8.7c0,1.5-.9,1.8-1.6,1.8ZM51.9,22.8c-.8,0-1.2.4-1.2,1.4v8.7c0,.9.4,1.4,1.2,1.4s1.2-.4,1.2-1.4v-8.7c0-.9-.4-1.4-1.2-1.4Z"/>
  </g>
  <path class="st0" d="M18.9,20.5h2.6v15.9h-2.6v-15.9Z"/>
  <path class="st0" d="M25.1,22.8h-2.8v-2.3h8.5l-.3,2.3h-2.8v13.7h-2.6v-13.7Z"/>
  <path class="st0" d="M32.8,20.5h3.6l2.7,15.9h-2.6l-.5-3.2h0s-3,0-3,0l-.5,3.1h-2.5l2.7-15.9ZM35.6,31.2l-1.2-7.9h0l-1.2,7.9h2.4Z"/>
  <path class="st0" d="M40.4,20.5h2.6v13.7h4.4v2.3h-7v-15.9Z"/>
  <path class="st0" d="M49,35.7c-.7-.7-1-1.7-1-3v-8.4c0-1.3.3-2.3,1-3,.7-.7,1.7-1,3-1s2.3.3,3,1c.7.7,1,1.7,1,3v8.4c0,1.3-.3,2.3-1,3-.7.7-1.7,1-3,1s-2.3-.3-3-1ZM53.3,32.9v-8.7c0-1-.5-1.6-1.4-1.6s-1.4.5-1.4,1.6v8.7c0,1,.5,1.6,1.4,1.6s1.4-.5,1.4-1.6Z"/>
  <path class="st4" d="M40.3,42.1s0,0,0-.1c0,0,0,0,.1,0,0,0,.1,0,.3,0,.1,0,.3,0,.4,0s.2,0,.3,0c.1,0,.3,0,.4,0,.2,0,.3,0,.5,0,.2,0,.3,0,.4,0,0,0,0,.2,0,.2,0,.2,0,.2-.2.2-.4,0-.6.1-.8.2-.1,0-.2.2-.2.3s0,.1,0,.4c0,.2,0,.6,0,1.2,0,.6,0,1.3.1,2.2,0,.9.1,2.1.2,3.5,0,.2,0,.3.2.4.1,0,.4.2.8.2,0,0,0,0,.1,0,0,0,0,0,0,.1s0,.1,0,.2c-.4,0-.7,0-1,0-.3,0-.6,0-.8,0s-.2,0-.4,0c-.2,0-.3,0-.5,0-.2,0-.3,0-.5,0-.2,0-.3,0-.4,0,0,0,0-.2,0-.2,0-.2,0-.2.2-.2.4,0,.7-.2.9-.2.2,0,.2-.2.2-.4s0-.2,0-.5c0-.3,0-.7,0-1.2,0-.5,0-1,0-1.5,0-.5,0-1,0-1.5,0-.5,0-.9,0-1.2,0-.3,0-.6,0-.6l-3.4,7.5c0,0,0,.1-.1.2,0,0,0,0-.1,0s-.1,0-.1,0l-3.8-7.9c0,0,0,.3,0,.7,0,.4,0,.8,0,1.3,0,.5,0,1,0,1.6,0,.6,0,1.1,0,1.5,0,.5,0,.9,0,1.2,0,.3,0,.5,0,.5,0,.3.4.5,1.1.6.1,0,.2,0,.2.2s.2,0,.2.2c-.3,0-.7,0-1,0-.3,0-.5,0-.7,0s-.4,0-.7,0c-.3,0-.5,0-.8,0,0,0,0-.2,0-.2,0-.1,0-.2.2-.2.3,0,.5-.1.7-.2.2,0,.3-.2.3-.4,0,0,0-.3,0-.7,0-.4,0-.9,0-1.4,0-.5,0-1.1,0-1.7,0-.6,0-1.2,0-1.7,0-.5,0-.9,0-1.3,0-.3,0-.5,0-.5,0-.2,0-.3-.2-.3-.1,0-.4-.1-.7-.2-.1,0-.2,0-.2-.2s0-.1,0-.2c.1,0,.3,0,.5,0,.2,0,.3,0,.5,0,.2,0,.3,0,.5,0,.2,0,.3,0,.4,0,.2,0,.3,0,.4,0,.1,0,.2,0,.3,0,0,0,.1,0,.1,0,0,0,0,0,0,.1l3.4,7,3.2-7Z"/>
  <path class="st4" d="M35.2,47.6l-1,2.3c0,.1,0,.2,0,.3,0,.2.3.3,1,.4,0,0,.1,0,.1,0,0,0,0,0,0,.1s0,.1,0,.2c-.3,0-.6,0-.9,0s-.5,0-.8,0-.5,0-.7,0c-.2,0-.4,0-.7,0,0,0,0,0,0-.1s0-.1,0-.2c0,0,0,0,.2,0,.3,0,.6-.1.7-.2.2,0,.3-.2.4-.3l3.8-8.2c0-.2.2-.2.3-.2s.1,0,.2,0l3.8,8.4c0,.1.2.2.4.3.2,0,.4.1.6.2,0,0,.1,0,.1,0,0,0,0,0,0,.2s0,0,0,.1c-.3,0-.6,0-1,0-.3,0-.5,0-.8,0s-.7.1-1.1.1c-.4,0-.7,0-1,0,0,0,0-.2,0-.2,0,0,0-.1,0-.2,0,0,0,0,.1,0,.3,0,.5-.1.7-.2.2,0,.3-.2.3-.3s0-.1,0-.2l-1-2.3-.3-.6-1.5-3.5-1.5,3.5-.3.6Z"/>
  <path class="st1" d="M72.9,30.1c-.8.3-1.6.6-2.4,1-.2.1-.4.4-.7.2-.4-.3-.1-.7-.1-1.1,0-.3.2-.4.4-.4,1.7.2,2.4-1.1,3.1-2.3.2-.3.2-.5,0-.8-.2-.3-.5-.2-.8-.1-1,.3-1.8.9-2.7,1.4-.2-.5-.2-.9.2-1.2.5-.3.5-.8.4-1.3-.3-.7-.7-2.7-1.4-3.1,0,0-.1,1.4-.3,1.5-.7.3-1.2,2.5-.6,2.9.9.5.7,1.2.8,1.9.1.9,0,1-.9.7-.8-.4-1.7-.5-2.6-.4-.5,0-.6.3-.3.8.8,1.3,1.8,1.9,3.3,1.7.5,0,.6.1.5.5,0,.2-.2.4-.2.6,0,.7-.3.6-.8.4-.8-.4-1.7-.7-2.6-.8-.4,0-.9,0-.8.6.3,1.4,2.1,2.6,3.4,2.5.2,0,.5-.1.5.2,0,.5,0,1.1-.3,1.5-.3.4-.7,0-1-.3-.8-.5-1.7-.9-2.6-1-.7-.1-1,.3-.8.9.8,2,1.8,2.7,3.8,2.6,0,.4-.1.8-.3,1.1-.4,1.1-.4,1-1.3.4-.8-.6-1.7-1.1-2.7-1.4-.8-.2-1.1.1-.9.9,0,.4.2.8.4,1.1.9,1.8,1.4,2.3,3.1,2,.1,0,.3-.1.4,0-.2.4-.4.9-.5,1.3-.4,1.2-.4,1.2-1.4.3-.8-.8-1.6-1.5-2.7-1.9-.5-.1-1.1-.2-1.2.5-.2,1.9,1.3,3.9,3.1,4.1.5,0,.5.3.3.7-.2.4-.5.8-.7,1.1-.5.8-.5.8-1.1,0-.8-1-1.6-1.9-2.7-2.5-.9-.5-1.4-.2-1.5.8,0,.2,0,.5,0,.7,0,.4.2.8.2,1.2.3,1.9,1.5,2.6,3.4,2.4-.8,1-1.4,2-2.2,2.8-.7-1.5-1.7-2.8-2.9-3.9-.4-.3-.8-.5-1.2-.4-.3,0-.6.4-.6.8,0,.9-.1,1.8,0,2.8.2,1.6.9,2.4,2.4,2.5.4,0,.6.2.2.6-.6.7-1.3,1.3-1.9,2-.1.1-.3.2-.5.2l-.8-.3c0,.1.8.6.8.6-.8.7-2.2,2.1-3,2.9.2.1.4.3.6.4.9-.8,2.4-2.3,3.3-3.1.2-.2.5-.2.7.2.5,1.1,1.4,1.6,2.5,1.5,1-.1,1.9-.3,2.8-.7.9-.3,1.9-.6,2.7-1.3.6-.5.5-1-.2-1.2-.7-.3-1.5-.4-2.3-.5-1.1-.2-2.2-.1-3.2-.2-.3,0-.7,0-.3-.5.5-.7,1.1-1.3,1.7-2,.3-.3.4-.3.7,0,.8,1.1,1.8,1.3,3.1,1,1.2-.3,2.4-.8,3.4-1.5.5-.3,1.3-.7,1.1-1.3-.2-.7-1-.6-1.6-.6-1.4,0-2.8-.1-4.2,0-.2,0-.3.1-.5,0-.1-.2,0-.3.1-.5.4-.6.9-1.2,1.2-1.8.2-.4.4-.3.6,0,.7.6,1.5,1.1,2.4.7,1.5-.5,3-1.1,4.1-2.3.2-.3.5-.5.3-.9-.1-.4-.5-.3-.8-.3-1.5-.2-3,.2-4.5.4-.5,0-.7,0-.4-.5.2-.4.4-.8.6-1.2.2-.5.5-.7,1-.3.8.5,1.6.5,2.4.2,1.1-.5,2-1.1,2.9-2,.3-.3.7-.6.5-1.1-.2-.5-.7-.4-1.2-.3-1.4.2-2.7.4-4.1.9,0-.7.4-1.3.5-1.9,0-.5.5-.3.8-.1.6.3,1.3.3,1.9,0,1.1-.5,2-1.3,2.8-2.2.2-.3.4-.6.2-1-.2-.3-.6-.3-.9-.2-1,.2-2,.4-3,.8-.7.3-1,.1-.8-.6,0-.4,0-.8.3-1.3.2.2.4.3.7.4,1.5.3,3.9-1.4,4.1-2.9,0-.3,0-.5-.4-.5-.4,0-.7,0-1.1.1-.8.3-1.6.6-2.3.9-.4.2-.7,0-.7-.3,0-.4,0-.9.2-1.3.1-.3.5.1.7.1.2,0,.4,0,.6,0,1.4-.2,2-1.4,2.7-2.3.2-.3.3-.6.1-.9-.2-.3-.6-.3-.9-.1Z"/>
  <path class="st1" d="M1.4,30.2c.8.4,1.6.6,2.3,1.1.2.1.4.4.7.2.4-.3.1-.7.2-1.1,0-.3-.2-.4-.4-.4-1.7.2-2.4-1.1-3.1-2.3-.2-.3-.2-.5,0-.8.2-.3.5-.2.8-.1,1,.3,1.8.9,2.7,1.5.3-.5.2-.9-.2-1.2-.5-.3-.5-.8-.3-1.3.3-.7.7-2.7,1.4-3.1,0,0,.1,1.4.2,1.5.7.3,1.2,2.6.5,2.9-.9.5-.8,1.2-.9,1.9-.1.9,0,1,.9.7.8-.3,1.7-.5,2.6-.4.5,0,.6.3.3.8-.8,1.3-1.8,1.9-3.3,1.6-.5,0-.6.1-.5.5,0,.2.2.4.2.6,0,.7.3.6.8.4.8-.4,1.7-.7,2.6-.8.4,0,.9,0,.8.6-.3,1.3-2.1,2.6-3.5,2.4-.2,0-.5-.1-.5.1,0,.5,0,1.1.2,1.5.3.4.7,0,1-.3.8-.5,1.7-.9,2.6-1,.8,0,1,.3.8.9-.8,2-1.8,2.6-3.9,2.5,0,.4.1.8.2,1.1.4,1.1.4,1,1.3.4.8-.6,1.7-1.1,2.7-1.4.8-.2,1.1.1.9.9-.1.4-.3.7-.4,1.1-.9,1.8-1.5,2.3-3.1,1.9-.1,0-.3-.1-.4,0,.2.4.3.9.5,1.3.4,1.2.4,1.2,1.4.4.8-.7,1.7-1.5,2.8-1.8.5-.1,1.1-.2,1.2.5.2,1.9-1.3,3.9-3.2,4.1-.5,0-.5.3-.3.7.2.4.5.8.7,1.2.5.8.5.8,1.1,0,.8-1,1.7-1.8,2.8-2.4.9-.5,1.5-.2,1.5.9,0,.2,0,.5,0,.7,0,.4-.2.8-.3,1.2-.3,1.9-1.5,2.6-3.4,2.4.8,1.1,1.4,2,2.2,2.9.8-1.5,1.7-2.8,2.9-3.8.4-.3.8-.5,1.2-.3.3.1.5.4.6.8,0,.9,0,1.8,0,2.8-.3,1.6-1,2.4-2.5,2.5-.4,0-.6.2-.2.6.6.7,1.3,1.3,1.9,2,.1.1.3.2.5.2l.8-.3c0,.1-.9.6-.8.6.8.8,1.6,1.5,2.4,2.3-.2.1-.4.3-.6.4-.9-.8-1.8-1.7-2.7-2.5-.2-.2-.5-.2-.7.2-.5,1.1-1.4,1.6-2.6,1.4-1-.2-1.9-.4-2.8-.7-.9-.3-1.9-.6-2.7-1.4-.5-.6-.5-1,.3-1.2.7-.3,1.5-.4,2.3-.5,1.1-.2,2.2,0,3.2-.1.3,0,.7,0,.3-.5-.5-.7-1.1-1.3-1.6-2-.3-.3-.4-.3-.7,0-.8,1.1-1.9,1.3-3.1.9-1.2-.4-2.4-.8-3.4-1.6-.5-.3-1.2-.7-1.1-1.3.2-.7,1-.6,1.6-.6,1.4,0,2.8,0,4.2.1.2,0,.3.1.5,0,.1-.2,0-.3-.1-.5-.4-.6-.8-1.2-1.2-1.8-.2-.4-.4-.3-.6,0-.7.6-1.5,1-2.4.7-1.5-.5-2.9-1.2-4.1-2.4-.2-.3-.4-.5-.3-.9.1-.4.5-.3.8-.3,1.5-.1,3,.3,4.5.4.5,0,.7,0,.4-.5-.2-.4-.4-.8-.5-1.2-.2-.5-.5-.7-1-.3-.8.5-1.6.5-2.4.1-1.1-.5-2-1.2-2.8-2.1-.3-.3-.7-.6-.4-1.1.2-.5.7-.4,1.2-.3,1.4.2,2.7.4,4.1.9,0-.7-.4-1.3-.5-1.9,0-.5-.5-.3-.8-.1-.6.3-1.3.2-1.9,0-1.1-.5-2-1.3-2.8-2.3-.2-.3-.4-.6-.2-1,.2-.3.6-.3.9-.2,1,.2,2,.4,3,.9.7.3,1,.1.8-.6,0-.4,0-.8-.3-1.3-.2.2-.4.3-.7.4-1.5.3-3.8-1.5-4.1-3,0-.3,0-.5.4-.5.4,0,.7,0,1.1.1.8.3,1.6.6,2.3,1,.4.2.7,0,.7-.3,0-.4,0-.9-.1-1.3-.1-.3-.5.1-.7.1-.2,0-.4,0-.6,0-1.4-.2-1.9-1.4-2.7-2.4-.2-.3-.3-.6-.1-.9.2-.3.6-.3.9-.1Z"/>
  <path class="st4" d="M72.9,29.4c-.8.3-1.6.6-2.4,1-.2.1-.4.4-.7.2-.4-.3-.1-.7-.1-1.1,0-.3.2-.4.4-.4,1.7.2,2.4-1.1,3.1-2.3.2-.3.2-.5,0-.8-.2-.3-.5-.2-.8-.1-1,.3-1.8.9-2.7,1.4-.2-.5-.2-.9.2-1.2.5-.3.5-.8.4-1.3-.3-.7-.7-2.7-1.4-3.1,0,0-.1,1.4-.3,1.5-.7.3-1.2,2.5-.6,2.9.9.5.7,1.2.8,1.9.1.9,0,1-.9.7-.8-.4-1.7-.5-2.6-.4-.5,0-.6.3-.3.8.8,1.3,1.8,1.9,3.3,1.7.5,0,.6.1.5.5,0,.2-.2.4-.2.6,0,.7-.3.6-.8.4-.8-.4-1.7-.7-2.6-.8-.4,0-.9,0-.8.6.3,1.4,2.1,2.6,3.4,2.5.2,0,.5-.1.5.2,0,.5,0,1.1-.3,1.5-.3.4-.7,0-1-.3-.8-.5-1.7-.9-2.6-1-.7-.1-1,.3-.8.9.8,2,1.8,2.7,3.8,2.6,0,.4-.1.8-.3,1.1-.4,1.1-.4,1-1.3.4-.8-.6-1.7-1.1-2.7-1.4-.8-.2-1.1.1-.9.9,0,.4.2.8.4,1.1.9,1.8,1.4,2.3,3.1,2,.1,0,.3-.1.4,0-.2.4-.4.9-.5,1.3-.4,1.2-.4,1.2-1.4.3-.8-.8-1.6-1.5-2.7-1.9-.5-.1-1.1-.2-1.2.5-.2,1.9,1.3,3.9,3.1,4.1.5,0,.5.3.3.7-.2.4-.5.8-.7,1.1-.5.8-.5.8-1.1,0-.8-1-1.6-1.9-2.7-2.5-.9-.5-1.4-.2-1.5.8,0,.2,0,.5,0,.7,0,.4.2.8.2,1.2.3,1.9,1.5,2.6,3.4,2.4-.8,1-1.4,2-2.2,2.8-.7-1.5-1.7-2.8-2.9-3.9-.4-.3-.8-.5-1.2-.4-.3,0-.6.4-.6.8,0,.9-.1,1.8,0,2.8.2,1.6.9,2.4,2.4,2.5.4,0,.6.2.2.6-.6.7-1.3,1.3-1.9,2-.1.1-.3.2-.5.2l-.8-.3c0,.1.8.6.8.6-.8.7-3,3.1-3.8,3.8.2.1.7.3,1.1,0,.9-.8,2.6-2.8,3.5-3.6.2-.2.5-.2.7.2.5,1.1,1.4,1.6,2.5,1.5,1-.1,1.9-.3,2.8-.7.9-.3,1.9-.6,2.7-1.3.6-.5.5-1-.2-1.2-.7-.3-1.5-.4-2.3-.5-1.1-.2-2.2-.1-3.2-.2-.3,0-.7,0-.3-.5.5-.7,1.1-1.3,1.7-2,.3-.3.4-.3.7,0,.8,1.1,1.8,1.3,3.1,1,1.2-.3,2.4-.8,3.4-1.5.5-.3,1.3-.7,1.1-1.3-.2-.7-1-.6-1.6-.6-1.4,0-2.8-.1-4.2,0-.2,0-.3.1-.5,0-.1-.2,0-.3.1-.5.4-.6.9-1.2,1.2-1.8.2-.4.4-.3.6,0,.7.6,1.5,1.1,2.4.7,1.5-.5,3-1.1,4.1-2.3.2-.3.5-.5.3-.9-.1-.4-.5-.3-.8-.3-1.5-.2-3,.2-4.5.4-.5,0-.7,0-.4-.5.2-.4.4-.8.6-1.2.2-.5.5-.7,1-.3.8.5,1.6.5,2.4.2,1.1-.5,2-1.1,2.9-2,.3-.3.7-.6.5-1.1-.2-.5-.7-.4-1.2-.3-1.4.2-2.7.4-4.1.9,0-.7.4-1.3.5-1.9,0-.5.5-.3.8-.1.6.3,1.3.3,1.9,0,1.1-.5,2-1.3,2.8-2.2.2-.3.4-.6.2-1-.2-.3-.6-.3-.9-.2-1,.2-2,.4-3,.8-.7.3-1,.1-.8-.6,0-.4,0-.8.3-1.3.2.2.4.3.7.4,1.5.3,3.9-1.4,4.1-2.9,0-.3,0-.5-.4-.5-.4,0-.7,0-1.1.1-.8.3-1.6.6-2.3.9-.4.2-.7,0-.7-.3,0-.4,0-.9.2-1.3.1-.3.5.1.7.1.2,0,.4,0,.6,0,1.4-.2,2-1.4,2.7-2.3.2-.3.3-.6.1-.9-.2-.3-.6-.3-.9-.1Z"/>
  <path class="st4" d="M1.2,29.5c.8.4,1.6.6,2.3,1.1.2.1.4.4.7.2.4-.3.1-.7.2-1.1,0-.3-.2-.4-.4-.4-1.7.2-2.4-1.1-3.1-2.3-.2-.3-.2-.5,0-.8.2-.3.5-.2.8-.1,1,.3,1.8.9,2.7,1.5.3-.5.2-.9-.2-1.2-.5-.3-.5-.8-.3-1.3.3-.7.7-2.7,1.4-3.1,0,0,.1,1.4.2,1.5.7.3,1.2,2.6.5,2.9-.9.5-.8,1.2-.9,1.9-.1.9,0,1,.9.7.8-.3,1.7-.5,2.6-.4.5,0,.6.3.3.8-.8,1.3-1.8,1.9-3.3,1.6-.5,0-.6.1-.5.5,0,.2.2.4.2.6,0,.7.3.6.8.4.8-.4,1.7-.7,2.6-.8.4,0,.9,0,.8.6-.3,1.3-2.1,2.6-3.5,2.4-.2,0-.5-.1-.5.1,0,.5,0,1.1.2,1.5.3.4.7,0,1-.3.8-.5,1.7-.9,2.6-1,.8,0,1,.3.8.9-.8,2-1.8,2.6-3.9,2.5,0,.4.1.8.2,1.1.4,1.1.4,1,1.3.4.8-.6,1.7-1.1,2.7-1.4.8-.2,1.1.1.9.9-.1.4-.3.7-.4,1.1-.9,1.8-1.5,2.3-3.1,1.9-.1,0-.3-.1-.4,0,.2.4.3.9.5,1.3.4,1.2.4,1.2,1.4.4.8-.7,1.7-1.5,2.8-1.8.5-.1,1.1-.2,1.2.5.2,1.9-1.3,3.9-3.2,4.1-.5,0-.5.3-.3.7.2.4.5.8.7,1.2.5.8.5.8,1.1,0,.8-1,1.7-1.8,2.8-2.4.9-.5,1.5-.2,1.5.9,0,.2,0,.5,0,.7,0,.4-.2.8-.3,1.2-.3,1.9-1.5,2.6-3.4,2.4.8,1.1,1.4,2,2.2,2.9.8-1.5,1.7-2.8,2.9-3.8.4-.3.8-.5,1.2-.3.3.1.5.4.6.8,0,.9,0,1.8,0,2.8-.3,1.6-1,2.4-2.5,2.5-.4,0-.6.2-.2.6.6.7,1.3,1.3,1.9,2,.1.1.3.2.5.2l.8-.3c0,.1-.9.6-.8.6.8.8,2.8,2.6,3.6,3.4-.2.1-1-.1-1.2,0-.9-.8-2.4-2.4-3.3-3.2-.2-.2-.5-.2-.7.2-.5,1.1-1.4,1.6-2.6,1.4-1-.2-1.9-.4-2.8-.7-.9-.3-1.9-.6-2.7-1.4-.5-.6-.5-1,.3-1.2.7-.3,1.5-.4,2.3-.5,1.1-.2,2.2,0,3.2-.1.3,0,.7,0,.3-.5-.5-.7-1.1-1.3-1.6-2-.3-.3-.4-.3-.7,0-.8,1.1-1.9,1.3-3.1.9-1.2-.4-2.4-.8-3.4-1.6-.5-.3-1.2-.7-1.1-1.3.2-.7,1-.6,1.6-.6,1.4,0,2.8,0,4.2.1.2,0,.3.1.5,0,.1-.2,0-.3-.1-.5-.4-.6-.8-1.2-1.2-1.8-.2-.4-.4-.3-.6,0-.7.6-1.5,1-2.4.7-1.5-.5-2.9-1.2-4.1-2.4-.2-.3-.4-.5-.3-.9.1-.4.5-.3.8-.3,1.5-.1,3,.3,4.5.4.5,0,.7,0,.4-.5-.2-.4-.4-.8-.5-1.2-.2-.5-.5-.7-1-.3-.8.5-1.6.5-2.4.1-1.1-.5-2-1.2-2.8-2.1-.3-.3-.7-.6-.4-1.1.2-.5.7-.4,1.2-.3,1.4.2,2.7.4,4.1.9,0-.7-.4-1.3-.5-1.9,0-.5-.5-.3-.8-.1-.6.3-1.3.2-1.9,0-1.1-.5-2-1.3-2.8-2.3-.2-.3-.4-.6-.2-1,.2-.3.6-.3.9-.2,1,.2,2,.4,3,.9.7.3,1,.1.8-.6,0-.4,0-.8-.3-1.3-.2.2-.4.3-.7.4-1.5.3-3.8-1.5-4.1-3,0-.3,0-.5.4-.5.4,0,.7,0,1.1.1.8.3,1.6.6,2.3,1,.4.2.7,0,.7-.3,0-.4,0-.9-.1-1.3-.1-.3-.5.1-.7.1-.2,0-.4,0-.6,0-1.4-.2-1.9-1.4-2.7-2.4-.2-.3-.3-.6-.1-.9.2-.3.6-.3.9-.1Z"/>
  <path class="st3" d="M38.2,62.8"/>
  <g>
    <polygon class="st5" points="64.4 76.8 9 76.8 12.7 69.8 9 63 64.4 63 60 69.9 64.4 76.8"/>
    <path class="st4" d="M64.8,77H8.7l3.8-7.3-3.8-7h56.1l-4.5,7.1,4.5,7.1ZM9.4,76.6h54.5l-4.2-6.6,4.2-6.7H9.4l3.6,6.5-3.6,6.8Z"/>
  </g>
  <g>
    <path class="st2" d="M15.5,73.5c-.4-.3-.7-.8-.7-1.4v-5.9h1.7v6c0,.3,0,.5.2.6.2.1.4.2.7.2s.5,0,.7-.2c.2-.1.2-.3.2-.6v-6h1.7v5.9c0,.6-.2,1.1-.7,1.4-.4.3-1.1.5-1.9.5s-1.5-.2-1.9-.5Z"/>
    <path class="st2" d="M21.2,66.2h2.2l1.7,4.6h0v-4.6h1.5v7.7h-1.8l-2.1-5.7h0v5.7h-1.5v-7.7Z"/>
    <path class="st2" d="M27.9,66.2h1.7v7.7h-1.7v-7.7Z"/>
    <path class="st2" d="M33.4,66.2h1.7v7.7h-1.7v-7.7Z"/>
    <path class="st2" d="M37.7,67.3h-1.8v-1.1h5.4v1.1h-1.8v6.6h-1.7v-6.6Z"/>
    <path class="st2" d="M42.6,66.2h2.4l1.8,7.7h-1.7l-.3-1.5h0s-2,0-2,0l-.3,1.5h-1.6l1.8-7.7ZM44.5,71.4l-.8-3.8h0l-.8,3.8h1.6Z"/>
    <path class="st2" d="M47.6,66.2h1.7v6.6h2.9v1.1h-4.6v-7.7Z"/>
    <path class="st2" d="M53.4,73.5c-.5-.3-.7-.8-.7-1.4v-4.1c0-.6.2-1.1.7-1.4.5-.3,1.1-.5,2-.5s1.5.2,2,.5c.5.3.7.8.7,1.4v4.1c0,.6-.2,1.1-.7,1.4-.5.3-1.1.5-2,.5s-1.5-.2-2-.5ZM56.3,72.2v-4.2c0-.5-.3-.8-.9-.8s-.9.3-.9.8v4.2c0,.5.3.8.9.8s.9-.3.9-.8Z"/>
  </g>
</svg>